<?xml version="1.0" standalone="no"?>
<!DOCTYPE svg PUBLIC "-//W3C//DTD SVG 20010904//EN"
 "http://www.w3.org/TR/2001/REC-SVG-20010904/DTD/svg10.dtd">
<svg version="1.0" xmlns="http://www.w3.org/2000/svg"
 width="2546.000000pt" height="1432.000000pt" viewBox="0 0 2546.000000 1432.000000"
 preserveAspectRatio="xMidYMid meet">
<metadata>
Created by potrace 1.16, written by Peter Selinger 2001-2019
</metadata>
<g transform="translate(0.000000,1432.000000) scale(0.100000,-0.100000)"
fill="#000000" stroke="none">
<path d="M22985 14311 c-28 -6 -30 -9 -27 -51 1 -25 56 -605 123 -1290 66
-685 131 -1360 145 -1500 13 -140 51 -545 84 -900 34 -355 67 -697 75 -760 15
-124 41 -396 50 -525 3 -44 21 -246 41 -449 19 -202 34 -374 32 -381 -2 -9
-24 -4 -78 18 -121 48 -235 67 -400 68 -230 0 -413 -43 -615 -143 -590 -295
-970 -859 -895 -1326 30 -185 147 -331 350 -440 126 -68 216 -86 415 -86 153
0 181 2 276 27 254 66 466 178 691 366 213 178 365 384 458 622 78 197 70 490
-36 1314 -55 423 -91 759 -113 1045 -6 80 -33 395 -61 700 -50 561 -71 796
-136 1530 -45 518 -104 1101 -155 1545 -22 193 -44 401 -48 462 -11 145 -21
163 -94 162 -28 -1 -65 -4 -82 -8z"/>
<path d="M18272 11680 c-18 -4 -35 -10 -38 -13 -4 -4 49 -281 261 -1362 20
-99 76 -389 126 -645 49 -256 105 -544 124 -640 51 -262 185 -966 185 -972 0
-4 -26 1 -57 10 -39 11 -96 16 -173 16 -237 -1 -439 -88 -634 -273 -187 -179
-289 -380 -303 -601 -12 -187 75 -321 258 -396 177 -73 453 -21 669 126 177
120 342 317 403 480 66 175 39 443 -118 1155 -74 333 -94 434 -230 1135 -52
267 -103 526 -113 575 -11 50 -22 105 -25 123 l-6 32 42 0 c290 0 639 -146
854 -358 157 -153 250 -316 327 -572 73 -242 66 -497 -25 -905 -21 -99 -46
-201 -55 -227 -19 -57 -12 -88 20 -88 41 0 63 40 110 200 98 334 128 532 121
806 -5 216 -8 250 -31 354 -79 363 -268 616 -669 899 -104 74 -203 145 -220
158 -16 12 -73 56 -125 95 -121 92 -280 245 -336 324 -57 79 -140 255 -199
419 -25 71 -51 135 -57 142 -11 14 -36 15 -86 3z"/>
<path d="M14138 8678 c-15 -12 -8 -32 68 -198 47 -102 114 -244 149 -316 35
-72 77 -165 94 -205 36 -90 192 -431 290 -631 39 -81 71 -152 71 -157 0 -5 47
-112 105 -237 58 -126 108 -236 111 -246 4 -15 0 -18 -28 -18 -144 0 -335
-119 -440 -273 -51 -75 -63 -105 -83 -206 -33 -161 14 -298 119 -350 65 -33
176 -34 256 -2 73 28 178 108 235 179 54 67 120 198 132 262 17 91 1 186 -49
295 -90 195 -276 592 -336 717 -34 71 -62 132 -62 137 0 5 -23 57 -50 116
l-50 108 37 -6 c21 -4 136 -16 255 -27 314 -29 402 -61 516 -185 109 -119 163
-266 184 -499 l12 -128 23 27 c28 32 30 95 9 225 -23 139 -44 209 -96 316 -47
97 -104 169 -167 211 -13 9 -23 26 -23 39 0 32 -34 171 -53 216 -30 70 -107
179 -177 248 -64 63 -224 180 -247 180 -5 0 -36 13 -69 28 -32 16 -88 39 -124
51 -36 13 -74 27 -85 32 -11 5 -55 20 -98 34 -164 53 -299 146 -349 243 -18
35 -50 43 -80 20z m448 -483 c302 -37 528 -148 647 -317 48 -69 117 -190 117
-206 0 -6 -30 7 -67 28 -38 22 -149 67 -248 100 -218 75 -321 121 -424 194
-82 58 -118 94 -170 170 l-32 46 28 0 c16 0 83 -7 149 -15z"/>
<path d="M11468 7478 c-16 -5 -28 -15 -28 -21 0 -16 359 -1105 380 -1152 10
-22 28 -74 40 -115 12 -41 71 -221 130 -400 102 -307 220 -673 220 -681 0 -2
-33 -3 -74 -1 -155 7 -288 -50 -417 -178 -154 -153 -213 -276 -210 -434 0 -48
8 -112 17 -142 40 -139 231 -206 414 -144 217 73 433 338 447 550 7 88 -41
271 -142 545 -86 235 -102 284 -205 610 -40 127 -78 244 -85 260 -16 36 -54
153 -59 181 -14 73 -360 1097 -379 1122 -11 14 -12 14 -49 0z"/>
<path d="M13308 6818 c-16 -5 -28 -17 -28 -25 0 -9 45 -104 100 -212 54 -108
156 -314 226 -458 70 -145 130 -263 134 -263 3 0 28 -46 54 -102 109 -233 241
-498 247 -498 3 0 23 48 44 108 21 59 63 161 92 227 30 66 60 142 68 169 19
64 19 170 0 227 -19 54 -73 115 -120 134 -93 39 -215 -1 -272 -90 -18 -27 -38
-58 -45 -68 -11 -16 -40 35 -233 422 -121 242 -224 440 -230 440 -5 0 -22 -5
-37 -11z m712 -843 c18 -9 39 -35 56 -70 25 -51 26 -63 22 -143 -3 -48 -18
-133 -34 -191 l-28 -104 -60 118 c-146 284 -139 266 -127 306 12 39 30 59 76
83 38 20 58 20 95 1z"/>
<path d="M9105 4858 c-115 -82 -403 -285 -640 -450 -236 -166 -433 -304 -437
-307 -7 -6 82 -221 153 -368 21 -46 39 -87 39 -93 0 -14 97 -242 138 -325 16
-33 33 -71 37 -85 10 -35 110 -270 156 -366 22 -45 39 -86 39 -91 0 -11 127
-305 164 -380 14 -28 28 -64 32 -80 4 -15 18 -51 30 -79 l23 -52 -77 -4 c-95
-6 -145 -30 -222 -107 -73 -73 -126 -179 -140 -280 -31 -226 51 -363 216 -364
133 0 267 99 343 254 85 172 65 311 -94 629 -29 58 -56 116 -60 130 -11 38
-112 273 -161 377 -24 51 -44 97 -44 102 0 11 -116 281 -153 356 -13 28 -28
61 -32 75 -10 36 -113 284 -140 339 -26 53 -80 209 -74 214 2 2 63 44 134 93
72 48 267 185 435 304 271 192 562 393 598 414 8 5 18 -5 28 -31 9 -21 35 -78
59 -128 23 -49 46 -101 50 -115 13 -44 105 -262 150 -355 23 -49 50 -110 58
-135 13 -40 78 -192 190 -445 19 -44 69 -161 110 -260 l74 -180 -71 -6 c-173
-15 -299 -143 -361 -367 -22 -77 -16 -189 12 -254 39 -88 141 -146 235 -135
105 13 225 94 282 190 57 99 87 250 66 342 -17 78 -218 571 -257 631 -7 11
-26 56 -42 100 -32 86 -144 349 -184 429 -13 28 -32 70 -40 95 -23 67 -134
327 -166 390 -16 30 -36 78 -46 105 -35 104 -178 425 -189 424 -6 0 -105 -68
-221 -151z"/>
<path d="M6573 4333 c-7 -2 -13 -10 -13 -17 0 -10 414 -911 529 -1148 21 -46
63 -135 91 -198 29 -63 60 -129 70 -147 l19 -32 -57 1 c-108 1 -201 -62 -288
-194 -60 -92 -76 -138 -76 -228 -1 -87 13 -121 66 -168 67 -59 150 -67 242
-23 61 29 116 79 163 149 13 20 32 49 42 63 55 82 61 215 14 316 -15 32 -43
96 -62 143 -19 47 -65 146 -103 220 -107 209 -343 730 -335 738 12 13 181 14
239 2 71 -15 178 -68 235 -117 106 -90 194 -261 211 -406 6 -45 11 -131 13
-192 3 -101 5 -110 23 -110 18 0 19 8 19 165 0 210 -19 319 -79 445 -78 165
-191 260 -422 355 -268 109 -341 160 -440 305 -54 80 -69 91 -101 78z"/>
<path d="M1346 3438 c-101 -103 -159 -255 -187 -489 -18 -155 -1 -381 36 -500
5 -14 -35 -60 -162 -191 -93 -95 -192 -205 -220 -245 -59 -84 -120 -204 -128
-252 -3 -19 -11 -43 -18 -55 -8 -14 -12 -70 -11 -171 1 -139 3 -156 31 -237
82 -238 264 -416 479 -472 68 -18 230 -21 282 -7 29 9 32 7 36 -12 3 -12 19
-85 37 -162 58 -253 43 -392 -51 -485 -91 -92 -262 -113 -342 -42 -27 23 -22
29 24 36 96 15 151 85 151 190 -1 102 -59 187 -139 202 -148 28 -256 -72 -257
-238 0 -92 23 -148 87 -206 26 -24 73 -56 104 -70 51 -24 69 -27 167 -27 105
0 114 2 177 33 184 90 232 266 160 582 -17 74 -34 158 -37 185 l-6 50 69 42
c81 50 174 140 197 192 9 20 23 49 31 64 21 38 37 211 25 268 -32 147 -47 181
-126 267 -39 41 -78 72 -119 92 -65 31 -177 55 -226 48 -33 -5 -40 5 -40 55 0
18 -11 84 -23 148 l-23 115 59 70 c83 98 171 233 207 321 57 137 73 214 74
368 1 151 -8 205 -56 350 -58 174 -106 245 -166 245 -28 0 -44 -10 -96 -62z
m188 -267 c112 -95 11 -405 -200 -613 -32 -32 -61 -58 -65 -58 -14 0 -21 39
-26 150 -12 253 71 473 201 531 41 18 59 16 90 -10z m-252 -1197 c31 -163 31
-164 -22 -192 -61 -32 -156 -127 -181 -182 -12 -25 -26 -56 -32 -69 -7 -14
-12 -70 -12 -130 0 -85 4 -113 19 -141 10 -19 27 -51 37 -71 39 -77 167 -163
215 -145 22 8 17 22 -18 50 -139 109 -134 101 -137 204 -2 67 0 76 33 130 44
72 83 110 132 127 38 13 39 13 46 -13 6 -26 21 -120 38 -233 4 -31 12 -79 19
-105 19 -87 52 -296 47 -301 -3 -3 -51 -7 -108 -10 -242 -12 -426 91 -518 291
-35 75 -39 93 -40 168 -3 153 48 307 137 415 22 26 46 57 54 69 20 30 259 257
265 251 2 -2 14 -53 26 -113z m263 -422 c63 -22 122 -81 165 -166 32 -63 33
-68 27 -159 -5 -85 -8 -99 -40 -148 -34 -54 -96 -117 -135 -138 -18 -9 -20 -4
-36 87 -10 53 -22 122 -26 152 -5 30 -16 87 -24 125 -22 103 -37 184 -43 234
l-5 43 33 -7 c19 -3 57 -14 84 -23z"/>
<path d="M5690 3190 c-12 -7 1 -46 75 -232 48 -123 103 -255 122 -295 18 -40
33 -77 33 -82 0 -14 79 -213 90 -226 4 -5 22 -51 39 -101 17 -50 46 -128 66
-175 19 -46 35 -84 35 -85 0 -1 -28 -4 -62 -6 -54 -3 -71 -10 -116 -42 -75
-54 -139 -136 -158 -203 -41 -140 28 -240 157 -230 69 6 108 26 175 89 63 60
107 150 108 223 1 52 2 51 -124 355 -37 91 -87 217 -110 280 -24 63 -48 124
-55 135 -11 19 -37 87 -41 110 -3 20 -187 470 -197 483 -11 14 -17 15 -37 2z"/>
<path d="M2763 2492 c-13 -2 -23 -6 -23 -8 0 -5 70 -253 77 -269 3 -10 -75
-61 -81 -54 -1 2 -19 60 -38 129 -26 94 -39 126 -53 128 -36 8 -36 -14 0 -141
19 -69 35 -132 35 -139 0 -8 -13 -21 -29 -31 l-28 -17 18 -67 c10 -37 22 -70
27 -75 4 -4 20 -1 35 7 26 13 28 13 37 -8 10 -22 40 -150 40 -167 0 -5 -13
-16 -30 -25 -25 -13 -28 -19 -21 -38 5 -12 15 -48 22 -79 7 -32 14 -58 16 -58
2 0 17 7 34 15 23 12 30 13 33 3 2 -7 13 -40 24 -73 11 -33 26 -86 33 -117 10
-50 15 -58 35 -58 13 0 25 4 28 9 6 9 -8 63 -24 92 -5 9 -12 34 -15 55 -4 22
-13 60 -20 86 l-13 46 39 26 c21 14 40 26 43 26 2 0 7 -16 11 -36 3 -20 17
-68 31 -107 13 -40 24 -83 24 -96 0 -17 4 -22 16 -17 9 3 22 6 30 6 10 0 11 6
3 26 -5 15 -12 42 -15 62 -3 19 -17 69 -30 110 -27 83 -28 81 26 112 13 7 12
17 -3 77 -10 37 -22 72 -27 76 -4 5 -19 1 -33 -8 -32 -20 -34 -17 -63 93 l-21
84 28 17 c34 19 34 23 12 107 -15 54 -21 64 -35 60 -10 -3 -26 -9 -36 -12 -15
-4 -22 12 -52 121 -18 69 -36 127 -39 129 -3 1 -16 0 -28 -2z m124 -525 c36
-118 36 -113 -12 -141 l-44 -24 -6 39 c-4 21 -10 41 -15 44 -4 3 -11 22 -14
42 -4 21 -9 45 -12 54 -4 16 45 56 71 58 6 0 20 -32 32 -72z"/>
<path d="M4660 2141 c-74 -16 -172 -89 -206 -154 -23 -43 -24 -136 -3 -249 11
-57 24 -143 30 -193 5 -49 14 -117 20 -150 6 -33 14 -98 19 -145 5 -47 16
-125 24 -175 9 -49 23 -143 32 -207 15 -113 17 -118 40 -118 20 0 23 4 19 28
-14 76 -38 236 -45 302 -5 42 -14 103 -20 135 -6 33 -15 98 -20 144 -6 46 -15
111 -21 145 -5 33 -14 97 -20 141 -5 44 -11 92 -14 106 -6 25 -5 25 62 25 81
0 139 23 203 80 46 41 63 74 80 148 8 37 7 52 -5 76 -26 50 -102 76 -175 61z"/>
<path d="M2355 1940 c-3 -5 -4 -14 -1 -19 3 -5 8 -28 11 -52 3 -24 12 -71 21
-104 29 -112 30 -108 -16 -129 -22 -11 -41 -17 -43 -15 -11 15 -27 63 -27 80
0 27 -29 151 -39 167 -13 21 -41 3 -41 -27 0 -14 8 -58 19 -96 10 -39 21 -89
25 -112 6 -40 4 -43 -25 -58 -26 -14 -30 -21 -25 -43 3 -15 9 -48 14 -75 5
-26 11 -50 15 -53 3 -3 18 1 34 9 l28 15 22 -81 c29 -107 29 -114 -8 -133 -29
-15 -31 -18 -25 -57 4 -23 12 -57 19 -75 11 -33 17 -35 59 -17 13 5 18 1 22
-17 46 -235 52 -253 77 -250 13 2 25 5 27 7 3 2 -31 151 -56 248 -10 38 -10
38 29 53 21 9 41 17 45 17 7 2 34 -71 34 -96 0 -10 7 -49 15 -86 15 -64 17
-68 40 -63 30 5 30 14 6 111 -11 42 -23 97 -28 122 -10 47 -10 47 24 63 35 17
39 26 23 56 -5 10 -12 40 -16 66 -3 27 -7 51 -10 53 -2 2 -16 -1 -30 -8 -33
-15 -40 -9 -49 36 -3 21 -13 57 -20 80 -18 52 -13 67 26 83 33 14 33 19 5 115
-12 40 -19 43 -61 30 -18 -5 -22 2 -37 77 -33 164 -41 188 -59 188 -10 0 -21
-4 -24 -10z m96 -452 c4 -39 7 -59 19 -113 7 -33 14 -64 16 -70 5 -12 -81 -57
-90 -48 -3 4 -6 20 -7 37 0 17 -8 61 -18 98 l-17 66 41 20 c48 25 55 26 56 10z"/>
</g>
</svg>
